<?xml version="1.0" standalone="no"?>
<!DOCTYPE svg PUBLIC "-//W3C//DTD SVG 20010904//EN"
 "http://www.w3.org/TR/2001/REC-SVG-20010904/DTD/svg10.dtd">
<svg version="1.0" xmlns="http://www.w3.org/2000/svg"
 width="2072.000000pt" height="1168.000000pt" viewBox="0 0 2072.000000 1168.000000"
 preserveAspectRatio="xMidYMid meet">

<g transform="translate(0.000000,1168.000000) scale(0.100000,-0.100000)"
fill="#000000" stroke="none">
<path d="M15016 11635 c-22 -56 -70 -96 -155 -131 -106 -42 -158 -35 -274 35
l-37 23 -88 -86 -87 -86 19 -32 c51 -86 66 -124 66 -165 0 -47 -39 -159 -72
-205 -26 -38 -93 -75 -151 -83 -66 -10 -77 -29 -77 -137 0 -123 5 -132 80
-146 92 -17 133 -50 178 -141 32 -66 37 -85 37 -147 0 -65 -3 -74 -37 -125
-21 -30 -38 -59 -38 -65 0 -15 160 -174 175 -174 7 0 30 13 51 28 92 66 167
68 289 8 88 -44 119 -82 136 -169 17 -84 22 -87 143 -87 120 0 126 4 145 91
18 87 51 126 140 167 53 25 94 37 136 40 56 3 65 1 127 -37 37 -23 71 -41 75
-41 11 0 173 163 173 174 0 5 -17 34 -37 63 -52 75 -56 143 -17 245 18 45 43
87 66 110 35 35 54 43 154 68 49 12 54 27 54 149 0 96 -12 116 -77 126 -100
15 -148 55 -193 164 -47 114 -39 186 32 282 26 34 20 44 -75 137 -83 80 -80
79 -155 28 -64 -43 -141 -47 -231 -12 -86 34 -135 75 -157 131 l-17 45 -142 0
-142 0 -17 -45z m269 -634 c50 -23 118 -96 136 -147 42 -124 -8 -257 -122
-319 -45 -24 -66 -29 -124 -29 -60 0 -79 4 -125 30 -91 51 -149 158 -136 252
25 184 204 286 371 213z"/>
<path d="M16025 11668 c-71 -17 -70 -16 -70 -113 l0 -88 53 -12 c63 -15 97
-43 128 -110 32 -67 31 -128 -1 -180 -13 -22 -25 -47 -25 -55 0 -20 101 -120
120 -120 8 0 33 12 55 25 52 32 113 33 180 1 67 -31 95 -65 110 -128 l11 -53
83 -3 c49 -2 88 2 96 8 7 6 16 31 20 56 16 111 193 184 289 119 20 -14 45 -25
54 -25 20 0 122 99 122 118 0 7 -12 31 -27 54 -37 56 -37 113 2 192 31 63 64
90 124 101 20 4 42 11 49 17 15 13 17 164 2 173 -41 25 -135 35 -341 35 l-220
0 17 -32 c26 -51 22 -137 -9 -191 -38 -64 -116 -102 -189 -94 -133 16 -213
150 -160 270 l21 47 -227 -1 c-125 -1 -245 -6 -267 -11z"/>
<path d="M17997 11635 c-67 -76 -107 -89 -292 -95 -185 -6 -218 -17 -269 -88
l-31 -44 0 -307 0 -307 28 -42 c48 -73 86 -86 277 -92 191 -7 217 -16 291 -98
37 -42 60 -89 152 -315 97 -241 107 -272 107 -329 0 -94 -30 -149 -149 -271
-55 -56 -105 -115 -110 -130 -16 -41 -13 -112 4 -155 19 -46 373 -405 427
-433 41 -21 120 -25 165 -8 15 5 73 54 128 108 121 118 164 142 260 149 70 4
72 4 310 -93 289 -117 309 -127 358 -174 72 -68 81 -95 87 -281 6 -191 16
-223 88 -274 l44 -31 307 0 308 0 43 30 c29 20 51 47 67 80 20 45 23 65 23
186 0 152 11 199 60 261 l30 37 0 581 c0 462 -3 581 -12 577 -175 -77 -297
-107 -464 -114 -327 -14 -603 86 -833 303 -240 225 -361 506 -361 833 0 186
32 332 110 499 l39 82 -577 -1 -577 -1 -38 -43z"/>
<path d="M16703 10748 c-6 -7 -14 -31 -17 -53 -19 -105 -60 -152 -176 -200
-93 -39 -168 -33 -243 18 -29 20 -57 37 -61 37 -12 0 -176 -162 -176 -174 0
-5 17 -34 37 -63 51 -74 56 -145 18 -240 -46 -117 -94 -160 -200 -179 -63 -11
-65 -14 -65 -139 0 -127 2 -131 70 -141 56 -8 122 -45 149 -82 10 -15 32 -58
46 -95 38 -95 33 -166 -18 -240 -20 -29 -37 -58 -37 -63 0 -13 164 -174 176
-174 5 0 34 17 64 37 76 51 139 56 236 18 119 -47 161 -93 180 -200 11 -64 14
-65 145 -65 l118 0 11 43 c6 23 16 59 21 80 15 58 72 107 162 141 104 39 165
34 241 -18 65 -45 63 -46 166 59 l75 76 -19 32 c-48 80 -66 123 -66 161 0 61
49 182 92 227 35 36 53 44 156 69 l42 11 0 124 0 125 -27 6 c-150 33 -192 66
-236 184 -42 115 -37 151 39 277 l19 32 -85 86 c-46 47 -89 85 -94 85 -5 0
-34 -17 -63 -37 -71 -49 -145 -56 -230 -23 -119 47 -163 92 -184 191 -6 30
-16 60 -21 67 -7 8 -45 12 -123 12 -78 0 -116 -4 -122 -12z m239 -759 c93 -47
155 -157 145 -256 -7 -68 -51 -149 -101 -185 -178 -129 -421 -9 -419 207 1 68
13 105 49 152 79 103 216 138 326 82z"/>
<path d="M19254 8676 c-8 -11 -14 -26 -14 -33 0 -20 -47 -45 -69 -38 -11 3
-32 20 -46 37 -24 29 -29 30 -63 22 -37 -9 -37 -9 -34 -56 3 -37 -1 -51 -17
-67 -25 -25 -42 -26 -82 -5 -36 18 -52 14 -74 -20 -15 -23 -15 -26 10 -64 21
-32 24 -44 16 -65 -12 -32 -26 -40 -76 -47 -37 -5 -40 -8 -46 -44 -6 -36 -4
-39 26 -52 76 -31 83 -69 26 -123 -39 -35 -39 -37 -26 -68 13 -31 17 -33 63
-33 74 0 101 -40 67 -100 -20 -35 -18 -42 15 -68 l30 -23 33 25 c19 14 44 26
55 26 34 0 62 -35 62 -75 0 -29 5 -37 26 -45 44 -17 58 -11 79 33 16 34 26 43
50 45 30 3 63 -19 83 -54 8 -14 14 -15 46 -4 35 11 36 13 36 61 0 82 39 102
117 60 16 -8 24 -6 40 12 33 36 33 43 8 77 -45 61 -26 102 52 115 31 5 43 12
47 28 12 44 6 55 -39 77 -40 19 -45 26 -45 55 0 26 8 39 37 63 l38 30 -17 35
c-16 33 -20 35 -52 30 -25 -4 -44 0 -62 12 -23 15 -25 21 -20 53 14 78 12 92
-14 109 -24 14 -28 14 -64 -10 -56 -38 -99 -16 -110 58 -7 40 -9 43 -42 47
-27 3 -39 -1 -50 -16z m108 -175 c110 -56 173 -157 173 -276 0 -60 -5 -81 -33
-138 -37 -74 -102 -135 -169 -158 -54 -19 -149 -16 -213 6 -73 24 -159 109
-183 179 -51 150 13 312 153 384 61 32 70 34 145 30 59 -2 92 -9 127 -27z"/>
<path d="M20626 7958 c-25 -29 -46 -58 -46 -64 0 -6 15 -31 33 -55 64 -84 72
-120 37 -176 -26 -43 -48 -53 -131 -60 -81 -7 -84 -11 -94 -100 -7 -58 -6 -61
16 -68 117 -37 166 -86 156 -157 -6 -47 -16 -60 -88 -112 -36 -26 -54 -46 -51
-56 3 -8 14 -39 25 -69 l19 -53 77 6 c46 4 88 3 104 -3 l27 -11 0 505 c0 488
-1 505 -19 515 -17 8 -26 2 -65 -42z"/>
<path d="M18944 7694 c-33 -79 -71 -114 -122 -114 -52 1 -75 17 -126 87 l-45
62 -68 -26 c-37 -14 -69 -27 -70 -27 -1 -1 2 -34 8 -73 12 -87 -3 -132 -53
-163 -44 -27 -62 -25 -136 10 -35 17 -69 30 -76 30 -14 0 -55 -42 -81 -83 -17
-27 -17 -29 4 -58 68 -91 73 -103 68 -148 -7 -66 -47 -101 -123 -107 -102 -9
-101 -9 -113 -64 -20 -91 -18 -94 54 -125 151 -64 155 -170 11 -261 l-44 -28
18 -52 c33 -94 29 -92 108 -82 85 11 132 -4 162 -54 27 -45 25 -62 -14 -145
l-35 -72 35 -31 c19 -16 46 -37 60 -46 24 -16 27 -16 55 5 116 86 156 93 216
38 34 -32 36 -38 42 -110 4 -42 9 -78 12 -81 6 -7 103 -26 129 -26 11 0 27 24
48 73 35 79 67 107 121 107 49 0 78 -19 122 -82 47 -67 51 -68 140 -30 l46 20
-9 68 c-11 80 -7 102 28 143 37 45 79 49 153 16 34 -15 61 -31 61 -35 0 -3
-12 -35 -26 -70 -22 -54 -24 -67 -13 -91 6 -16 9 -38 6 -49 -5 -18 5 -26 64
-52 61 -27 70 -35 79 -67 18 -66 13 -100 -21 -132 -17 -16 -44 -37 -60 -46
-33 -20 -35 -30 -14 -79 17 -41 14 -49 -25 -69 -16 -8 -31 -24 -35 -34 -8 -26
72 -219 94 -226 9 -3 32 0 51 5 72 21 107 13 170 -36 32 -25 63 -43 68 -40 13
8 71 -58 88 -100 17 -40 18 -104 3 -157 -6 -23 -6 -43 -1 -54 10 -17 182 -93
213 -93 11 0 34 23 58 59 57 83 97 101 227 101 93 0 103 -2 146 -29 27 -17 57
-48 73 -75 15 -25 29 -46 31 -46 2 0 4 201 4 446 l0 446 -28 -53 c-98 -188
-363 -184 -465 6 -17 31 -22 58 -22 115 0 57 5 84 22 115 102 191 373 193 467
3 l26 -52 0 450 -1 449 -23 -37 c-33 -54 -56 -78 -98 -99 -43 -22 -48 -16 -48
61 0 55 -4 58 -89 66 l-56 6 -19 -50 c-11 -28 -27 -60 -36 -71 -15 -21 -15
-21 -53 10 -20 17 -51 50 -68 75 -17 26 -38 44 -49 44 -33 0 -208 -81 -212
-98 -2 -9 -1 -28 3 -42 4 -14 7 -49 8 -78 1 -45 -3 -57 -25 -77 -36 -33 -75
-32 -152 5 l-62 29 -21 -22 c-12 -12 -32 -36 -46 -54 l-25 -32 41 -54 c23 -30
41 -57 41 -60 0 -9 -37 -9 -67 -1 -19 5 -21 9 -12 26 9 16 7 26 -10 49 -57 76
-71 104 -71 136 0 75 55 123 142 123 87 0 90 4 104 106 l6 51 -67 28 c-79 34
-115 72 -115 121 0 52 22 85 84 128 31 21 56 44 56 52 0 18 -39 123 -48 128
-4 2 -34 0 -67 -5 -74 -11 -107 -4 -145 27 -45 39 -47 77 -9 169 l33 78 -44
39 c-25 21 -53 41 -62 44 -10 3 -40 -13 -78 -41 -80 -58 -123 -61 -176 -12
-34 31 -37 39 -45 112 -4 44 -8 81 -8 82 -2 4 -104 23 -125 23 -20 0 -29 -11
-52 -66z m156 -277 c346 -122 500 -511 330 -836 -53 -101 -105 -160 -195 -219
-113 -76 -185 -97 -330 -97 -97 1 -132 5 -182 23 -201 71 -353 234 -399 428
-24 104 -15 247 23 345 72 185 212 315 398 371 91 27 255 20 355 -15z"/>
<path d="M18495 5603 c-110 -47 -110 -46 -95 -130 19 -103 0 -152 -90 -237
-90 -84 -135 -98 -239 -74 -38 8 -54 9 -63 0 -15 -15 -88 -191 -88 -214 0 -11
19 -30 49 -48 84 -52 111 -108 111 -229 0 -103 -19 -152 -74 -196 -21 -17 -51
-42 -67 -57 -30 -27 -30 -27 -14 -65 9 -21 28 -66 42 -101 29 -72 46 -85 94
-72 54 16 126 12 167 -9 20 -10 65 -48 99 -83 76 -80 90 -121 73 -215 -7 -34
-10 -69 -7 -76 2 -7 53 -32 112 -57 l108 -44 24 30 c86 106 94 114 145 129 65
19 140 19 205 0 49 -15 95 -55 146 -129 10 -14 24 -26 31 -26 17 0 188 69 205
83 10 8 11 24 6 62 -18 125 -2 176 87 262 81 79 153 100 252 72 33 -9 41 -8
56 8 22 24 91 198 85 215 -3 7 -26 26 -50 42 -52 32 -87 75 -104 125 -14 43
-14 154 0 204 12 46 64 106 114 132 19 11 38 27 40 37 3 9 -14 63 -38 120 -48
115 -41 111 -149 93 -74 -12 -130 9 -199 72 -31 30 -67 73 -78 97 -23 46 -27
119 -11 175 5 19 6 40 1 49 -9 17 -183 92 -212 92 -10 0 -26 -12 -36 -26 -78
-113 -118 -134 -246 -134 -121 0 -165 21 -220 103 -46 69 -57 70 -172 20z
m495 -694 c199 -90 213 -355 24 -465 -88 -52 -215 -41 -296 26 -87 72 -117
215 -65 315 31 61 68 98 127 124 60 27 150 27 210 0z"/>
<path d="M20335 4794 c-85 -37 -85 -36 -78 -108 7 -76 -5 -103 -75 -168 -56
-52 -98 -66 -157 -49 -21 6 -42 8 -48 4 -14 -8 -67 -129 -67 -153 0 -11 11
-25 28 -34 59 -31 92 -92 92 -172 0 -67 -26 -120 -76 -155 -25 -17 -44 -38
-44 -49 0 -10 13 -48 30 -85 l30 -67 63 7 c76 8 124 -11 176 -71 38 -43 51
-73 51 -120 0 -33 -1 -34 -22 -22 -17 10 -99 13 -333 13 -298 0 -312 -1 -350
-21 -93 -50 -107 -89 -115 -304 -6 -185 -7 -189 -64 -268 -41 -58 -67 -72
-371 -199 l-260 -108 -85 0 c-112 1 -145 18 -280 151 -111 109 -153 134 -222
134 -77 -1 -113 -28 -335 -251 -229 -232 -243 -253 -229 -342 10 -62 31 -92
149 -215 125 -130 137 -154 137 -265 0 -61 -8 -87 -116 -349 -104 -254 -121
-288 -162 -330 -79 -82 -110 -91 -314 -98 l-176 -5 -44 -30 c-23 -17 -53 -49
-65 -70 -22 -39 -23 -47 -23 -353 0 -336 1 -342 54 -400 44 -50 71 -56 256
-62 199 -7 223 -15 310 -96 l47 -44 606 0 605 0 -29 54 c-70 128 -118 317
-126 494 -26 529 310 1020 812 1190 389 132 836 53 1153 -205 l42 -34 0 638 0
638 -108 44 c-120 50 -168 90 -207 176 -21 45 -24 69 -27 221 l-3 172 23 -9
c18 -7 26 -4 40 13 9 12 31 37 49 57 l31 36 101 0 101 0 0 209 c0 194 -1 208
-17 201 -35 -14 -111 -17 -147 -5 -78 26 -135 104 -136 185 0 53 35 121 83
159 35 28 46 31 110 31 40 0 80 -4 90 -9 16 -8 17 5 17 201 l0 209 -83 -4
c-101 -5 -133 8 -180 74 -17 24 -36 44 -41 44 -6 -1 -38 -12 -71 -26z"/>
<path d="M14959 2668 c-17 -57 -35 -108 -41 -115 -5 -6 -24 -15 -41 -19 -18
-3 -48 -15 -67 -24 l-36 -18 -92 59 c-51 32 -98 59 -105 59 -8 0 -40 -24 -72
-53 l-57 -52 44 -108 45 -109 -34 -63 -33 -63 -83 -11 c-157 -23 -145 -17
-156 -75 -5 -28 -12 -67 -14 -86 l-5 -35 103 -54 c109 -56 108 -54 120 -141 7
-45 7 -46 -69 -130 l-75 -84 30 -56 c16 -30 38 -66 48 -79 l18 -23 114 25 114
25 45 -38 45 -38 -4 -114 -3 -115 44 -18 c91 -36 132 -46 143 -32 6 7 38 49
72 93 l62 79 56 -2 56 -1 70 -91 c79 -102 68 -99 184 -56 l60 22 -2 119 -1
119 47 37 47 37 114 -25 c107 -23 113 -23 126 -7 19 26 74 129 74 140 0 5 -34
46 -76 92 -51 57 -73 88 -69 99 3 9 9 35 12 59 6 43 6 43 109 98 l104 56 0 39
c0 47 -19 140 -28 140 -26 1 -215 31 -223 35 -5 4 -9 11 -9 17 0 6 -14 33 -30
60 l-30 49 44 107 45 107 -52 47 c-29 27 -60 51 -70 54 -11 3 -50 -15 -108
-51 -96 -61 -91 -60 -186 -29 l-52 18 -36 113 -36 113 -84 0 -84 0 -32 -102z
m158 -473 c18 -55 57 -71 102 -42 26 16 37 18 57 9 28 -13 30 -27 10 -73 -21
-49 -5 -75 53 -86 42 -7 46 -11 49 -40 2 -23 -2 -33 -16 -37 -30 -10 -62 -45
-62 -70 0 -12 11 -33 25 -46 29 -27 30 -33 10 -64 -14 -21 -19 -22 -60 -13
-57 13 -73 0 -77 -61 -3 -40 -6 -47 -32 -55 -25 -8 -31 -6 -53 22 -33 41 -64
41 -99 -3 -25 -30 -29 -32 -55 -22 -26 9 -29 15 -29 58 0 58 -19 72 -83 63
-39 -6 -44 -4 -56 19 -13 23 -12 28 13 61 20 26 26 43 22 61 -4 13 -10 24 -14
24 -4 0 -21 9 -38 19 -26 16 -30 24 -26 50 3 24 9 31 27 31 69 0 96 37 74 103
-12 37 -12 41 10 58 22 18 23 18 58 -5 29 -20 40 -23 64 -14 16 5 29 14 29 19
0 5 7 26 15 45 12 30 19 35 42 32 21 -2 29 -11 40 -43z"/>
<path d="M16362 2593 c-21 -67 -23 -68 -69 -84 l-48 -15 -59 37 -60 38 -38
-30 c-21 -17 -38 -36 -38 -44 0 -7 12 -39 26 -71 l26 -59 -23 -42 c-22 -41
-24 -41 -91 -48 -37 -4 -70 -10 -72 -14 -3 -4 -8 -29 -11 -57 l-6 -49 64 -34
c53 -28 66 -39 71 -64 10 -48 8 -53 -41 -107 l-47 -52 18 -31 c38 -71 36 -70
115 -52 69 16 71 16 101 -5 31 -22 31 -22 24 -95 l-7 -72 44 -16 c24 -9 51
-17 59 -20 9 -2 32 19 60 55 38 50 49 58 76 58 28 0 39 -9 79 -60 50 -65 48
-65 123 -34 l32 13 0 74 c0 65 3 76 25 97 23 22 27 22 86 11 33 -7 67 -15 74
-17 13 -5 65 70 65 93 0 6 -21 34 -46 62 -43 48 -45 53 -37 88 7 31 17 41 71
71 59 32 62 36 61 70 -1 67 -9 76 -83 87 -63 9 -68 12 -90 50 l-24 40 26 64
c28 70 26 79 -24 117 l-29 23 -62 -39 -62 -40 -42 18 c-39 17 -45 24 -64 83
l-22 64 -54 3 -55 3 -22 -68z m102 -287 c7 -30 38 -41 67 -26 30 17 56 -8 40
-38 -15 -28 -5 -49 28 -55 35 -7 48 -43 20 -52 -10 -4 -24 -15 -30 -27 -9 -16
-7 -24 10 -42 28 -29 13 -51 -36 -51 -35 0 -38 -2 -41 -32 -4 -40 -31 -52 -54
-24 -21 27 -43 27 -62 0 -22 -31 -50 -21 -56 21 -5 32 -8 35 -39 36 -44 0 -62
25 -38 52 24 26 21 47 -8 60 -36 17 -32 46 8 57 30 9 32 12 29 53 -3 45 17 67
41 43 22 -22 54 -13 66 19 13 38 46 41 55 6z"/>
<path d="M11908 1913 l-68 -16 0 -64 c0 -157 -82 -205 -210 -122 l-63 41 -51
-51 -51 -51 33 -63 c36 -72 40 -106 16 -146 -27 -45 -51 -54 -141 -52 l-82 2
-19 -63 c-10 -35 -17 -68 -15 -73 2 -6 25 -23 52 -38 72 -40 104 -82 97 -125
-8 -54 -32 -80 -101 -114 -71 -35 -67 -24 -42 -130 l11 -48 68 0 c75 0 117
-15 142 -52 26 -37 19 -79 -25 -152 l-41 -69 49 -49 50 -50 61 31 c87 44 142
40 184 -13 14 -16 18 -41 18 -107 l0 -86 58 -17 c32 -9 63 -16 69 -16 7 0 28
27 48 60 43 71 67 90 116 90 49 0 83 -29 120 -102 l31 -61 45 7 c25 3 57 12
72 19 24 11 26 18 31 88 9 143 81 178 205 100 l63 -40 52 47 52 47 -37 77
c-33 70 -36 80 -26 111 7 19 23 45 37 58 23 21 35 24 111 24 l86 0 12 35 c32
93 32 95 -32 135 -73 46 -93 71 -93 115 0 55 29 91 99 125 l63 30 -6 40 c-4
22 -11 55 -17 73 -10 32 -11 32 -75 32 -158 0 -201 94 -104 229 11 16 20 34
20 40 0 7 -20 34 -45 60 l-45 49 -63 -34 c-71 -39 -109 -42 -155 -14 -44 27
-55 61 -48 142 7 76 9 73 -75 98 l-59 18 -35 -59 c-59 -97 -100 -117 -170 -83
-25 11 -43 34 -70 85 -20 38 -37 69 -38 68 -1 -1 -32 -8 -69 -16z m374 -307
c97 -34 154 -70 228 -145 110 -112 160 -233 160 -389 0 -238 -135 -443 -354
-535 -59 -25 -89 -31 -175 -35 -187 -9 -315 40 -442 167 -122 122 -177 268
-165 433 27 375 399 625 748 504z"/>
<path d="M13323 1709 c-30 -9 -33 -13 -33 -47 0 -72 -48 -96 -108 -54 l-29 21
-27 -28 c-27 -28 -27 -28 -10 -65 14 -27 15 -43 8 -64 -8 -24 -15 -28 -64 -32
-47 -4 -55 -8 -61 -30 -12 -43 -10 -49 21 -65 63 -32 61 -89 -3 -121 -18 -9
-33 -17 -34 -18 -1 -1 2 -19 8 -39 8 -31 14 -37 37 -37 78 -1 102 -34 70 -100
l-21 -42 26 -26 26 -26 36 20 c32 17 38 18 63 4 23 -13 27 -23 30 -67 3 -50 4
-51 39 -58 31 -6 39 -3 55 17 9 13 18 26 18 29 0 3 10 10 23 16 32 15 64 -1
84 -42 15 -32 20 -35 48 -29 43 9 45 11 45 47 0 70 53 98 110 57 l29 -20 27
24 28 24 -19 42 c-17 38 -18 45 -4 69 12 22 22 26 65 29 49 3 51 5 62 38 10
34 9 35 -29 60 -35 22 -40 29 -37 57 2 24 12 38 41 56 34 22 37 28 31 55 -9
44 -11 46 -53 46 -66 0 -88 45 -51 105 l20 32 -30 28 c-28 27 -30 27 -54 11
-57 -37 -106 -8 -106 63 0 35 -4 43 -26 51 -38 15 -50 12 -62 -14 -15 -33 -52
-57 -78 -50 -12 3 -31 23 -43 45 -12 21 -25 39 -29 38 -4 0 -22 -5 -39 -10z
m232 -174 c63 -28 122 -85 149 -144 30 -67 29 -179 -4 -245 -53 -110 -148
-170 -265 -170 -225 0 -367 229 -264 429 74 143 235 198 384 130z"/>
<path d="M15993 1483 c-17 -3 -27 -18 -40 -59 -17 -54 -18 -55 -72 -71 -31 -9
-74 -25 -97 -35 l-40 -20 -49 31 c-27 17 -52 31 -56 31 -3 0 -38 -29 -77 -65
l-70 -65 22 -56 23 -56 -32 -54 c-18 -29 -38 -67 -45 -83 -11 -27 -18 -31 -71
-37 -49 -5 -60 -10 -64 -28 -20 -88 -25 -115 -25 -148 0 -33 4 -38 55 -67 49
-28 55 -35 55 -64 0 -17 6 -55 14 -84 l14 -52 -40 -45 -39 -46 36 -67 c19 -38
44 -78 55 -91 18 -22 22 -23 79 -11 l61 12 39 -36 c22 -19 49 -40 60 -47 18
-9 21 -20 21 -69 l0 -59 361 0 361 0 -4 55 c-5 51 -3 55 26 75 17 12 46 35 63
51 32 30 33 30 90 19 58 -11 58 -11 85 20 15 17 41 57 58 90 l32 59 -42 45
c-29 32 -39 50 -35 64 3 11 12 49 18 85 12 65 13 67 62 93 58 31 64 50 45 147
-17 93 -18 95 -49 95 -61 0 -89 12 -102 41 -6 17 -27 54 -45 85 l-33 55 21 55
21 55 -39 40 c-21 21 -55 51 -75 65 l-37 25 -52 -32 -52 -32 -46 22 c-26 12
-67 27 -91 34 -42 12 -46 16 -63 68 -18 53 -21 57 -56 63 -40 6 -103 6 -139
-1z m198 -327 c128 -39 227 -123 284 -240 88 -179 57 -378 -81 -518 -221 -226
-595 -165 -731 118 -124 259 1 547 275 635 69 22 189 24 253 5z"/>
<path d="M14178 1033 l-57 -4 -61 -189 -60 -189 -53 -16 c-28 -10 -85 -31
-125 -47 l-72 -30 -169 105 -169 105 -39 -32 c-79 -63 -173 -150 -173 -160 0
-6 32 -92 72 -190 l71 -179 -17 -31 c-10 -17 -32 -55 -48 -83 l-30 -53 222 0
222 0 71 65 c79 72 184 131 297 167 108 33 302 33 410 0 109 -34 200 -86 291
-164 l79 -68 221 2 220 3 -49 81 -49 81 73 178 c41 98 74 183 74 190 0 11 -79
84 -170 157 l-45 35 -167 -104 -168 -105 -72 30 c-40 16 -96 37 -125 46 l-52
17 -63 190 -62 189 -35 0 c-20 0 -58 2 -86 4 -27 2 -76 1 -107 -1z"/>
<path d="M10529 834 c-7 -9 -15 -34 -18 -57 -6 -39 -10 -44 -60 -69 -67 -35
-95 -35 -133 -3 -40 34 -55 32 -105 -17 -49 -48 -54 -75 -18 -108 31 -29 31
-53 4 -116 -30 -69 -46 -84 -89 -84 -50 0 -60 -14 -60 -85 0 -71 10 -85 60
-85 22 0 43 -7 53 -17 20 -23 57 -109 57 -134 0 -18 12 -19 385 -19 314 0 383
2 379 13 -2 7 9 43 25 80 31 69 37 73 106 79 l30 3 0 80 0 80 -45 5 c-25 3
-50 9 -56 12 -6 4 -23 37 -39 73 l-28 66 22 27 c49 62 49 68 -4 122 -27 28
-57 50 -65 50 -9 0 -27 -11 -40 -25 -29 -31 -62 -32 -127 -5 -59 26 -73 43
-73 92 0 46 -19 58 -93 58 -38 0 -59 -5 -68 -16z m166 -333 c53 -25 101 -76
120 -130 68 -195 -139 -373 -320 -273 -73 40 -108 96 -113 180 -4 75 9 118 52
168 58 70 175 95 261 55z"/>
<path d="M11590 247 l-35 -12 -5 -76 c-4 -57 -10 -83 -24 -98 l-19 -21 302 0
302 0 -12 22 c-7 13 -9 46 -6 86 l5 64 -32 13 c-17 7 -47 16 -66 20 -34 6 -36
4 -64 -45 -44 -79 -112 -111 -163 -75 -12 8 -37 42 -55 75 -29 53 -36 60 -63
59 -16 0 -46 -5 -65 -12z"/>
<path d="M11260 70 l-35 -29 84 -1 85 0 -47 30 c-26 17 -49 30 -50 30 -1 0
-18 -14 -37 -30z"/>
<path d="M12315 50 c-4 -6 5 -10 20 -10 15 0 24 4 20 10 -3 6 -12 10 -20 10
-8 0 -17 -4 -20 -10z"/>
</g>
</svg>
