<?xml version="1.0" encoding="UTF-8"?> <svg xmlns="http://www.w3.org/2000/svg" id="Слой_1" data-name="Слой 1" viewBox="0 0 747.93 654.71"><polygon points="609.78 654.71 491.34 468.1 617.47 514.25 747.93 481.5 609.78 654.71"></polygon><path d="M1064,781.41l.36-1.63.38-1.83.75-3.74,1.44-7.62c.94-5.11,1.82-10.27,2.66-15.44,1.67-10.34,3.16-20.76,4.48-31.2q3.95-31.34,5.8-62.94c1.21-21,1.69-42.1,1.26-63.11s-1.74-42-4.2-62.73a477.86,477.86,0,0,0-11.2-61.44,335.88,335.88,0,0,0-20.43-58.38A237.54,237.54,0,0,0,1013,359.41a192.29,192.29,0,0,0-45.82-40.3c-4.32-2.74-8.9-5.23-13.54-7.6s-9.35-4.58-14.13-6.67A270.7,270.7,0,0,0,910,294.07,323.24,323.24,0,0,0,848,282a430,430,0,0,0-63.83-1.27,561.87,561.87,0,0,0-63.86,7.13c-42.38,7.12-84.15,18.4-125,32.45q-30.63,10.55-60.53,23.19-14.94,6.32-29.67,13.14c-9.8,4.57-19.55,9.28-29.12,14.35,9.36-5.45,18.92-10.55,28.55-15.52s19.37-9.73,29.18-14.35q29.43-13.83,59.8-25.69c40.46-15.76,82.11-28.83,124.85-37.79a571,571,0,0,1,64.85-9.87,442.57,442.57,0,0,1,66-1.32A340.9,340.9,0,0,1,915,276.54a290.88,290.88,0,0,1,31.94,10.27q7.85,3,15.52,6.56c5.11,2.36,10.12,4.89,15.21,7.51a215.67,215.67,0,0,1,54.61,41.22,265.41,265.41,0,0,1,40.47,55.21,369.58,369.58,0,0,1,27.22,62.27,515.45,515.45,0,0,1,17,65.26c4.3,22,7.38,44.18,9.5,66.4s3.29,44.48,3.68,66.74,0,44.51-1.13,66.76q-.86,16.68-2.27,33.4-.7,8.36-1.6,16.75l-1,8.45-.52,4.27-.29,2.18-.33,2.37Z" transform="translate(-476 -265.79)"></path></svg> 