<?xml version="1.0" standalone="no"?>
<!DOCTYPE svg PUBLIC "-//W3C//DTD SVG 20010904//EN"
 "http://www.w3.org/TR/2001/REC-SVG-20010904/DTD/svg10.dtd">
<svg version="1.0" xmlns="http://www.w3.org/2000/svg"
 width="376.000000pt" height="414.000000pt" viewBox="0 0 376.000000 414.000000"
 preserveAspectRatio="xMidYMid meet">

<g transform="translate(0.000000,414.000000) scale(0.100000,-0.100000)"
fill="#000000" stroke="none">
<path d="M2014 4043 c-28 -4 -32 -9 -60 -95 l-29 -90 -65 -24 -65 -24 -50 32
c-129 80 -114 79 -185 14 l-43 -38 37 -92 38 -92 -28 -56 -27 -56 -98 -13
c-110 -14 -104 -8 -117 -105 l-8 -62 78 -38 c44 -21 85 -45 92 -54 8 -8 17
-37 20 -63 l7 -48 -65 -75 -65 -74 30 -53 c50 -85 44 -82 154 -58 l98 21 40
-32 40 -32 -7 -98 -7 -99 38 -16 c21 -8 56 -21 78 -28 l41 -12 59 78 60 78 50
1 50 0 55 -72 c30 -39 58 -75 61 -80 3 -5 39 3 80 17 41 14 76 25 78 25 2 0 2
46 -1 103 l-6 103 39 33 39 32 96 -21 c52 -11 99 -18 104 -15 5 3 26 33 45 67
l36 61 -28 31 c-15 17 -45 50 -67 73 -35 38 -38 45 -32 80 12 67 16 73 79 105
94 47 118 66 113 91 -3 12 -8 44 -11 70 -4 27 -12 50 -18 52 -7 2 -51 9 -99
15 l-88 12 -30 57 -31 56 38 94 37 94 -34 29 c-78 67 -71 66 -164 9 l-83 -51
-62 23 -61 22 -26 85 c-14 47 -29 88 -32 91 -10 10 -82 17 -118 12z m76 -489
c16 -48 52 -62 97 -37 30 16 34 16 49 1 14 -13 14 -21 5 -51 -15 -43 -1 -77
30 -77 64 0 78 -49 24 -81 -41 -24 -45 -52 -13 -86 18 -20 20 -26 9 -49 -11
-24 -15 -26 -56 -20 -38 6 -45 4 -55 -15 -7 -12 -9 -34 -6 -50 5 -24 2 -28
-25 -34 -24 -6 -33 -2 -50 19 -27 35 -60 33 -87 -4 -20 -26 -25 -28 -47 -18
-20 9 -25 18 -25 48 0 48 -19 64 -67 56 -32 -6 -40 -3 -51 14 -12 19 -10 26
11 53 30 39 22 68 -22 87 -49 20 -39 66 16 76 44 8 60 39 44 85 -18 53 14 76
63 44 38 -25 71 -11 85 36 9 31 17 39 36 39 18 0 26 -8 35 -36z"/>
<path d="M3165 3893 c-18 -52 -24 -58 -62 -71 -41 -13 -44 -13 -87 17 -25 17
-49 31 -53 31 -13 0 -63 -54 -63 -67 0 -6 9 -33 21 -59 19 -46 19 -49 3 -80
-18 -34 -38 -44 -89 -44 -44 0 -57 -13 -62 -61 l-5 -44 55 -28 c47 -24 56 -33
62 -64 6 -33 3 -40 -36 -80 l-43 -43 18 -35 c29 -53 35 -55 100 -40 53 12 61
12 82 -3 20 -15 23 -26 24 -84 l0 -66 47 -16 c25 -9 47 -15 48 -13 1 1 18 23
39 50 53 65 81 64 132 -3 21 -27 42 -50 46 -50 4 0 26 7 48 16 l40 16 0 62 c0
53 4 66 23 85 23 21 26 21 86 7 l61 -14 26 45 27 44 -43 44 c-38 38 -42 47
-36 77 5 28 15 38 61 62 46 24 55 33 55 55 0 54 -10 70 -49 76 -85 14 -88 16
-104 50 -16 33 -15 37 5 90 l21 56 -31 32 c-31 31 -33 31 -59 15 -91 -53 -85
-52 -123 -36 -30 13 -38 23 -53 72 l-18 56 -47 0 -47 0 -20 -57z m84 -247 c11
-28 39 -40 57 -25 26 21 46 3 38 -36 -6 -33 -5 -35 25 -41 36 -7 43 -39 11
-49 -22 -7 -27 -44 -9 -62 17 -17 -2 -38 -36 -38 -24 0 -31 -5 -34 -25 -5 -36
-22 -42 -48 -18 l-23 21 -25 -23 c-28 -26 -41 -20 -47 20 -2 20 -9 25 -33 25
-36 0 -50 17 -35 44 15 30 12 49 -10 56 -30 9 -26 45 4 45 27 0 41 27 31 60
-8 24 18 38 39 21 19 -16 45 -3 52 25 8 31 32 31 43 0z"/>
<path d="M2825 2928 c-2 -7 -9 -30 -15 -51 -9 -27 -18 -39 -38 -43 -15 -4 -53
-17 -85 -31 l-57 -23 -38 25 c-20 14 -42 25 -48 25 -6 0 -37 -24 -69 -53 l-59
-54 18 -47 18 -48 -38 -73 c-38 -72 -39 -73 -89 -81 l-50 -9 -11 -50 c-7 -27
-13 -67 -13 -87 -1 -33 3 -39 42 -60 39 -21 43 -28 53 -80 6 -32 14 -65 18
-74 4 -11 -6 -32 -30 -60 l-35 -44 30 -53 c58 -98 61 -101 117 -89 49 11 49
11 104 -33 54 -42 55 -44 55 -96 l0 -52 44 -19 c24 -10 64 -23 88 -30 44 -11
44 -11 78 29 33 39 35 40 99 39 64 -1 67 -2 97 -40 37 -44 51 -44 152 -6 l57
21 0 60 c0 32 4 59 9 59 4 0 29 18 55 41 l46 41 51 -12 c58 -14 58 -15 111 87
l33 62 -34 35 c-34 36 -34 36 -23 87 7 28 12 61 12 73 0 17 13 30 50 50 l50
28 -6 51 c-3 29 -10 69 -15 90 -9 32 -14 37 -39 37 -44 0 -78 16 -85 42 -4 13
-20 44 -36 69 l-29 46 21 49 21 49 -47 41 c-76 67 -85 70 -134 40 l-41 -26
-48 19 c-26 11 -60 24 -77 28 -24 8 -34 20 -49 61 l-19 52 -84 0 c-58 0 -85
-4 -88 -12z m193 -272 c186 -50 313 -250 282 -444 -34 -207 -242 -355 -451
-321 -252 41 -400 323 -290 553 81 170 276 260 459 212z"/>
<path d="M1233 2533 c-4 -9 -28 -82 -53 -161 l-47 -145 -89 -32 c-49 -17 -98
-36 -109 -43 -18 -9 -40 1 -155 75 -74 47 -140 87 -147 90 -20 8 -193 -138
-193 -162 0 -6 29 -80 64 -165 l63 -156 -24 -34 c-14 -19 -36 -61 -50 -92
l-25 -57 -57 -7 c-31 -4 -108 -14 -171 -23 l-115 -16 -17 -90 c-10 -50 -17
-108 -18 -130 l0 -40 140 -75 c77 -40 145 -77 150 -80 6 -4 20 -49 30 -101
l19 -94 -22 -25 c-13 -14 -65 -71 -116 -127 l-93 -103 33 -57 c18 -32 50 -84
72 -116 32 -48 43 -58 60 -54 12 3 88 20 169 37 l148 32 66 -53 67 -53 -5
-173 -5 -172 71 -30 c39 -16 98 -36 131 -46 l59 -17 23 29 c13 15 60 76 106
135 l82 108 84 -3 85 -2 95 -122 c53 -67 101 -128 108 -134 14 -14 94 6 203
52 l64 27 -2 134 c-2 73 -5 151 -7 173 -5 39 -4 41 60 90 36 28 69 51 74 53 4
1 82 -13 172 -33 90 -19 166 -31 170 -27 19 19 120 189 125 209 5 19 -11 42
-87 126 -51 56 -101 111 -111 123 -18 21 -18 24 -1 113 l18 93 153 80 c147 78
152 82 152 113 0 34 -29 217 -36 224 -3 4 -100 18 -301 46 -37 5 -43 10 -53
40 -6 18 -29 61 -50 94 l-39 60 64 158 c36 87 65 161 65 165 0 8 -178 158
-189 158 -4 0 -72 -40 -150 -90 l-143 -90 -36 19 c-20 10 -67 28 -104 40 l-67
22 -53 164 -53 164 -123 1 c-106 0 -124 -2 -129 -17z m317 -642 c160 -50 299
-171 375 -323 98 -199 99 -384 4 -578 -127 -257 -436 -401 -719 -334 -175 41
-338 171 -419 334 -192 391 26 828 460 920 68 14 225 4 299 -19z"/>
</g>
</svg>
