<?xml version="1.0" standalone="no"?>
<!DOCTYPE svg PUBLIC "-//W3C//DTD SVG 20010904//EN"
 "http://www.w3.org/TR/2001/REC-SVG-20010904/DTD/svg10.dtd">
<svg version="1.0" xmlns="http://www.w3.org/2000/svg"
 width="416.000000pt" height="396.000000pt" viewBox="0 0 416.000000 396.000000"
 preserveAspectRatio="xMidYMid meet">

<g transform="translate(0.000000,396.000000) scale(0.100000,-0.100000)"
fill="#000000" stroke="none">
<path d="M2672 3738 c-5 -7 -13 -29 -17 -48 -12 -60 -37 -91 -97 -121 -74 -37
-137 -39 -193 -4 -22 13 -47 25 -55 25 -21 0 -120 -101 -120 -122 0 -10 11
-34 25 -54 30 -44 32 -108 6 -172 -30 -76 -68 -105 -163 -126 -28 -6 -28 -7
-28 -89 0 -90 8 -107 49 -107 78 -1 151 -93 159 -200 3 -47 0 -61 -22 -93 -14
-21 -26 -46 -26 -55 0 -21 99 -122 120 -122 8 0 31 12 53 27 52 36 112 36 190
-1 63 -30 92 -66 103 -126 10 -55 19 -60 104 -60 86 0 94 5 103 63 9 56 43 96
106 125 76 34 135 34 186 -1 22 -15 44 -27 50 -27 6 0 37 27 70 60 l59 59 -32
62 c-18 34 -32 70 -32 81 0 26 47 138 67 161 21 22 77 47 107 47 37 0 46 19
46 101 0 84 -5 93 -60 103 -61 11 -98 41 -126 103 -36 79 -36 139 -1 192 15
22 27 46 27 54 0 18 -102 117 -120 117 -8 0 -33 -12 -55 -25 -52 -33 -117 -33
-188 -1 -61 27 -92 64 -102 121 -11 61 -18 65 -105 65 -50 0 -81 -4 -88 -12z
m156 -534 c80 -33 125 -100 125 -184 0 -207 -276 -271 -368 -86 -41 82 -29
159 33 223 58 60 138 78 210 47z"/>
<path d="M1137 3226 c-8 -8 -19 -41 -26 -73 -17 -88 -48 -126 -139 -170 -56
-27 -93 -38 -137 -41 -56 -3 -65 -1 -127 37 -37 23 -71 41 -75 41 -11 0 -173
-163 -173 -174 0 -5 17 -34 38 -64 34 -50 37 -60 37 -126 0 -62 -5 -81 -37
-147 -45 -91 -86 -124 -178 -141 -75 -14 -80 -23 -80 -146 0 -108 11 -127 77
-137 100 -15 151 -59 197 -174 42 -105 36 -153 -40 -278 l-19 -32 80 -81 c89
-90 106 -95 161 -53 73 55 151 59 260 13 99 -43 135 -84 155 -182 6 -29 16
-59 21 -65 7 -9 45 -13 122 -13 114 0 136 6 136 40 0 36 32 121 56 149 28 34
127 85 193 100 55 12 126 -5 175 -42 54 -42 72 -36 159 51 42 42 77 81 77 85
0 5 -18 38 -40 74 -50 83 -53 137 -14 234 47 115 88 152 194 174 69 14 80 32
80 142 0 118 -5 127 -81 141 -96 18 -131 47 -180 147 -38 79 -41 91 -37 150 3
54 10 72 41 118 20 29 37 58 37 63 0 5 -38 48 -85 94 l-86 85 -32 -19 c-98
-59 -121 -68 -177 -64 -37 3 -80 16 -133 41 -91 44 -118 79 -141 176 -8 35
-21 68 -28 72 -24 15 -215 11 -231 -5z m243 -772 c116 -63 165 -200 117 -326
-22 -56 -97 -130 -153 -148 -100 -34 -205 -8 -277 69 -203 217 53 546 313 405z"/>
<path d="M2792 2221 c-7 -4 -20 -37 -28 -72 -23 -98 -52 -135 -142 -176 -123
-57 -185 -57 -273 2 -28 19 -56 35 -63 35 -12 0 -176 -160 -176 -173 0 -4 17
-32 37 -63 51 -77 56 -146 19 -240 -48 -119 -90 -155 -206 -178 l-55 -11 -3
-119 c-2 -74 1 -123 8 -130 6 -6 38 -16 72 -23 83 -17 124 -51 167 -138 57
-117 54 -198 -11 -289 -15 -21 -28 -43 -28 -49 0 -18 154 -167 173 -167 10 0
45 16 77 36 83 51 146 51 255 -2 96 -47 131 -87 148 -170 7 -32 16 -65 20 -71
12 -19 230 -18 246 0 6 8 15 38 21 67 10 54 36 104 67 133 10 9 52 30 93 48
112 47 187 41 269 -22 13 -11 33 -19 45 -19 24 0 176 146 176 169 0 8 -11 29
-26 48 -61 80 -68 148 -28 251 46 117 99 165 199 179 25 3 49 11 55 18 7 8 10
59 8 131 l-3 118 -35 9 c-96 23 -114 31 -150 63 -26 24 -49 60 -70 112 -43
103 -39 169 15 248 24 35 35 59 31 72 -8 24 -149 162 -166 162 -7 0 -39 -17
-73 -37 -54 -34 -67 -38 -126 -37 -80 1 -167 36 -223 91 -39 38 -52 67 -63
141 -4 26 -14 46 -25 52 -22 12 -210 13 -228 1z m203 -758 c56 -19 121 -79
149 -136 47 -100 23 -221 -60 -297 -59 -54 -99 -70 -179 -70 -80 0 -140 25
-191 82 -50 55 -67 101 -66 179 0 106 47 180 143 228 72 36 129 40 204 14z"/>
</g>
</svg>
