<?xml version="1.0" standalone="no"?>
<!DOCTYPE svg PUBLIC "-//W3C//DTD SVG 20010904//EN"
 "http://www.w3.org/TR/2001/REC-SVG-20010904/DTD/svg10.dtd">
<svg version="1.0" xmlns="http://www.w3.org/2000/svg"
 width="454.000000pt" height="438.000000pt" viewBox="0 0 454.000000 438.000000"
 preserveAspectRatio="xMidYMid meet">

<g transform="translate(0.000000,438.000000) scale(0.100000,-0.100000)"
fill="#000000" stroke="none">
<path d="M807 4183 c-2 -4 -7 -21 -11 -38 -20 -85 -74 -100 -137 -39 l-37 36
-40 -22 c-38 -22 -39 -24 -30 -57 14 -52 6 -94 -22 -114 -23 -17 -29 -18 -77
-5 l-52 14 -21 -35 c-11 -19 -20 -38 -20 -42 0 -4 16 -22 35 -41 61 -60 35
-130 -54 -145 l-42 -7 3 -46 c3 -45 4 -46 47 -59 90 -26 107 -77 45 -137 -35
-34 -36 -37 -24 -65 19 -47 33 -54 79 -40 32 9 46 9 71 -1 38 -16 47 -49 31
-108 -6 -25 -10 -46 -9 -47 2 -1 19 -11 39 -23 l36 -22 24 26 c36 39 74 56
101 45 32 -12 44 -28 58 -79 l11 -43 46 3 c46 3 46 3 60 50 25 87 82 97 148
28 l28 -29 39 22 c30 17 37 26 33 42 -19 64 -17 91 8 120 l24 29 57 -14 c53
-12 57 -12 71 6 32 41 30 63 -9 103 -57 59 -42 110 42 134 46 14 47 15 50 59
l3 45 -46 12 c-50 12 -85 41 -85 69 0 23 35 79 59 94 20 12 20 12 -2 51 -21
38 -23 39 -62 31 -62 -11 -86 -8 -108 15 -20 19 -20 25 -9 78 11 55 11 59 -11
75 -42 33 -57 32 -92 -6 -56 -61 -115 -47 -139 34 -13 44 -14 45 -59 48 -25 2
-47 -1 -50 -5z m206 -217 c154 -78 234 -246 193 -406 -65 -252 -337 -357 -554
-212 -193 128 -210 402 -34 562 75 70 135 91 248 87 76 -2 99 -7 147 -31z"/>
<path d="M2433 4002 c-6 -4 -17 -30 -24 -57 -17 -72 -35 -103 -70 -121 -51
-26 -93 -11 -153 52 l-52 54 -61 -36 -60 -36 20 -68 c23 -79 18 -110 -23 -151
-33 -33 -61 -36 -134 -14 -73 22 -79 20 -114 -41 l-32 -56 57 -60 c50 -52 57
-65 57 -97 -2 -70 -40 -101 -154 -129 l-35 -8 0 -69 0 -70 61 -16 c84 -23 103
-35 120 -76 21 -48 6 -87 -56 -148 l-49 -49 26 -48 c38 -70 42 -72 108 -52 68
19 118 14 151 -17 33 -31 38 -74 15 -147 -19 -62 -19 -63 0 -81 11 -10 38 -27
60 -36 l40 -18 47 45 c73 71 106 82 162 53 34 -18 52 -49 69 -120 15 -58 22
-65 76 -65 74 0 81 6 96 73 21 101 86 150 152 116 12 -6 43 -32 69 -57 l47
-45 38 17 c21 9 49 25 61 35 24 17 24 18 8 71 -25 84 -21 117 18 156 39 39 61
42 142 18 31 -9 61 -13 68 -11 13 5 66 92 66 108 0 5 -20 27 -44 49 -53 49
-71 87 -62 134 9 48 51 80 125 96 l61 13 0 71 0 72 -70 18 c-52 13 -76 25 -95
48 -45 53 -25 123 53 188 l37 30 -29 56 c-16 31 -35 58 -42 61 -6 2 -36 -3
-65 -11 -80 -24 -106 -21 -145 18 -39 39 -43 71 -19 150 8 27 15 53 15 58 0
11 -90 68 -109 68 -8 0 -40 -25 -72 -55 -66 -63 -95 -69 -150 -32 -26 17 -38
36 -52 82 -27 89 -28 90 -88 93 -30 1 -59 -1 -66 -6z m170 -297 c142 -30 278
-124 359 -249 103 -159 109 -366 16 -550 -42 -83 -154 -193 -238 -234 -69 -34
-179 -62 -245 -62 -68 0 -177 28 -250 64 -338 168 -407 615 -137 885 133 132
313 185 495 146z"/>
<path d="M971 3043 c-5 -21 -14 -56 -20 -79 -15 -57 -49 -86 -110 -92 -50 -4
-50 -4 -115 58 l-65 62 -51 -28 c-73 -40 -75 -44 -56 -112 24 -88 21 -128 -13
-162 -41 -41 -73 -46 -158 -25 -45 11 -77 15 -83 9 -5 -5 -23 -34 -39 -64
l-30 -55 53 -50 c66 -63 83 -108 62 -159 -18 -44 -59 -70 -137 -86 l-59 -13 0
-77 0 -77 61 -13 c77 -16 121 -46 136 -91 18 -56 5 -88 -59 -152 l-59 -57 26
-48 c48 -88 42 -84 126 -60 92 26 133 18 166 -31 27 -40 29 -82 7 -157 -18
-64 -16 -69 56 -108 l51 -28 58 56 c64 61 96 73 149 60 46 -12 69 -45 91 -130
l17 -69 76 -3 76 -3 17 71 c21 84 52 127 101 136 53 10 77 -1 137 -63 l55 -57
39 18 c22 10 52 27 67 39 l27 22 -21 77 c-24 89 -20 118 22 153 44 37 71 40
154 17 l75 -20 25 39 c53 85 53 82 -8 147 -62 64 -73 88 -64 137 9 48 52 80
136 100 l71 17 -3 76 -3 76 -70 17 c-52 14 -77 26 -97 48 -57 64 -50 110 29
192 62 66 62 63 9 148 l-25 39 -63 -19 c-85 -26 -120 -24 -157 6 -47 41 -55
78 -31 165 22 86 24 81 -61 125 l-46 24 -44 -45 c-54 -55 -87 -74 -133 -74
-52 0 -93 39 -112 108 -28 106 -25 102 -103 102 l-70 0 -10 -37z m224 -295
c152 -31 316 -162 388 -309 119 -243 77 -503 -112 -689 -382 -377 -1010 -112
-1011 425 0 150 52 283 152 390 157 168 356 231 583 183z"/>
<path d="M3410 2639 c-34 -161 -127 -191 -241 -80 l-59 57 -60 -33 c-33 -19
-60 -41 -60 -50 0 -8 7 -40 16 -70 27 -92 6 -150 -63 -179 -27 -12 -41 -11
-108 7 -42 11 -80 17 -85 14 -5 -3 -23 -30 -40 -60 l-32 -56 62 -66 c62 -66
62 -66 57 -116 -6 -68 -40 -98 -136 -122 l-71 -17 0 -74 0 -73 43 -11 c100
-26 119 -35 143 -63 26 -31 32 -83 13 -120 -6 -12 -34 -45 -61 -73 l-49 -51
36 -61 c20 -34 38 -62 41 -62 2 0 36 9 74 19 84 23 126 16 164 -30 31 -37 32
-62 6 -153 -11 -38 -19 -70 -17 -71 1 -1 30 -18 63 -38 l62 -35 53 54 c62 63
104 81 151 65 54 -19 76 -48 94 -127 l18 -74 76 0 77 0 13 59 c16 77 42 119
85 136 54 23 92 9 157 -55 l57 -57 53 29 c29 16 57 33 62 38 6 6 2 38 -9 83
-21 85 -16 117 25 158 34 34 74 37 162 13 68 -19 72 -17 112 56 l28 51 -61 65
c-53 56 -61 70 -61 103 0 74 42 112 157 141 39 10 42 13 48 53 4 24 3 58 -2
77 -8 31 -13 34 -78 52 -151 40 -168 145 -43 253 l41 35 -24 45 c-47 89 -44
87 -126 65 -86 -23 -129 -15 -167 31 -31 37 -32 62 -6 154 11 38 20 70 20 70
0 1 -29 17 -65 36 l-64 34 -53 -51 c-66 -65 -91 -78 -134 -70 -60 12 -90 48
-110 131 l-18 75 -76 0 -77 0 -13 -61z m282 -282 c138 -50 251 -142 323 -262
105 -175 106 -411 3 -593 -67 -117 -192 -224 -318 -270 -81 -30 -222 -40 -312
-23 -153 30 -321 148 -401 282 -59 100 -79 176 -80 299 0 91 4 116 30 190 16
47 46 112 67 143 79 119 217 217 354 252 87 22 249 14 334 -18z"/>
<path d="M2664 1071 c-8 -38 -39 -71 -66 -71 -12 0 -36 14 -54 31 l-31 30 -37
-17 c-24 -12 -35 -23 -32 -33 17 -57 17 -73 1 -97 -16 -25 -21 -26 -74 -21
-54 6 -57 5 -73 -24 -17 -29 -17 -30 12 -63 49 -55 39 -98 -26 -121 -36 -12
-39 -16 -42 -54 -3 -37 -1 -41 25 -47 78 -18 96 -68 44 -126 l-28 -32 19 -32
c18 -30 21 -32 51 -23 48 13 65 11 88 -12 20 -20 21 -56 3 -103 -3 -8 9 -23
27 -34 l33 -21 38 35 c21 19 44 34 51 34 26 0 57 -32 68 -71 12 -39 14 -40 52
-37 36 3 40 6 53 43 13 40 37 65 61 65 7 0 28 -14 46 -30 40 -34 53 -36 84
-12 21 15 22 21 12 56 -20 72 23 110 96 86 20 -7 38 -10 39 -8 2 1 11 18 21
37 l17 34 -31 29 c-51 47 -38 99 30 119 39 12 40 14 37 52 -3 37 -6 41 -43 54
-64 22 -73 62 -26 115 28 31 28 33 13 65 -17 35 -24 36 -94 17 -9 -3 -29 6
-44 19 -27 23 -27 26 -16 64 16 55 16 56 -18 77 -31 17 -31 17 -66 -13 -19
-17 -46 -31 -59 -31 -30 0 -61 32 -69 71 -5 26 -9 29 -46 29 -37 0 -41 -3 -46
-29z m180 -161 c70 -36 131 -100 155 -165 86 -229 -118 -470 -351 -415 -109
26 -190 96 -229 199 -59 156 38 349 201 402 51 17 172 5 224 -21z"/>
</g>
</svg>
