<?xml version="1.0" standalone="no"?>
<!DOCTYPE svg PUBLIC "-//W3C//DTD SVG 20010904//EN"
 "http://www.w3.org/TR/2001/REC-SVG-20010904/DTD/svg10.dtd">
<svg version="1.0" xmlns="http://www.w3.org/2000/svg"
 width="546.000000pt" height="452.000000pt" viewBox="0 0 546.000000 452.000000"
 preserveAspectRatio="xMidYMid meet">

<g transform="translate(0.000000,452.000000) scale(0.100000,-0.100000)"
fill="#000000" stroke="none">
<path d="M2733 4481 c-39 -11 -86 -27 -104 -36 -27 -15 -41 -15 -87 -6 -85 17
-202 14 -271 -8 -238 -74 -373 -319 -375 -681 0 -80 3 -157 7 -171 6 -22 2
-28 -27 -41 -84 -41 -89 -182 -9 -286 26 -34 26 -35 19 -165 -8 -163 -29 -356
-67 -612 -36 -247 -35 -242 -59 -250 -57 -18 -147 -143 -190 -262 -22 -62 -22
-62 -79 -78 -140 -41 -239 -148 -270 -293 -7 -36 -11 -274 -11 -757 l0 -705
-101 0 c-89 0 -100 2 -95 16 3 9 18 140 32 292 25 274 24 322 -6 322 -17 0
-11 18 19 60 53 73 66 206 24 238 -25 19 -136 10 -186 -14 -38 -18 -39 -18
-49 1 -21 38 -95 105 -116 105 -26 0 -84 -49 -112 -95 l-20 -33 -62 25 c-48
20 -74 24 -120 21 -70 -5 -78 -14 -78 -83 0 -68 15 -115 55 -174 18 -28 29
-51 24 -51 -29 0 -31 -50 -10 -321 12 -151 24 -282 27 -291 5 -17 -6 -18 -131
-18 -136 0 -136 0 -133 -22 l3 -23 2559 -3 c1814 -1 2563 1 2572 9 7 6 10 17
7 25 -4 11 -40 14 -194 14 -104 0 -189 3 -189 8 0 4 16 17 34 29 35 23 88 91
100 129 5 15 18 24 43 29 74 14 122 55 137 118 17 70 -44 159 -119 173 -29 5
-35 11 -35 31 0 37 -26 79 -58 92 -20 9 -102 11 -280 9 l-252 -3 -27 -28 -28
-28 0 -172 c0 -165 1 -174 26 -227 24 -50 101 -140 121 -140 4 0 8 -5 8 -10 0
-7 -55 -10 -157 -8 l-158 3 -5 740 -5 740 -27 57 c-48 103 -146 188 -247 213
-25 7 -48 18 -52 26 -5 8 -28 57 -52 110 -43 93 -103 170 -164 210 -21 13 -26
37 -57 249 -38 256 -62 481 -71 660 -6 110 -5 117 19 164 34 65 35 139 3 187
-21 31 -23 43 -19 129 10 239 -82 473 -258 651 -185 188 -412 265 -617 210z
m-84 -541 c27 -14 33 -34 41 -138 6 -77 13 -101 37 -140 38 -62 97 -105 180
-132 70 -23 100 -40 71 -40 -22 0 -78 -48 -78 -66 0 -17 -2 -17 51 2 41 14 78
14 137 -2 16 -5 22 -2 22 9 0 8 -10 22 -22 31 -23 17 -23 17 12 12 19 -3 89
-10 155 -16 66 -7 131 -16 144 -21 20 -8 30 -3 68 32 37 33 49 40 71 34 15 -3
35 -15 45 -27 23 -28 22 -112 -3 -158 -16 -32 -22 -35 -61 -35 -37 0 -45 -4
-57 -27 -7 -16 -17 -28 -23 -28 -5 0 -9 -7 -9 -16 0 -8 -14 -49 -31 -89 -85
-206 -250 -371 -439 -440 -97 -36 -251 -45 -352 -21 -206 48 -393 207 -494
419 -20 43 -39 97 -41 122 -4 29 -10 42 -18 39 -7 -3 -20 6 -29 20 -19 31 -62
35 -81 9 -13 -17 -14 -17 -33 1 -32 28 -52 80 -52 133 0 116 97 135 161 32 24
-39 24 -39 74 -33 79 9 165 33 201 54 37 24 92 84 116 128 14 26 23 31 72 37
30 4 68 3 83 -2 35 -12 53 -7 53 17 0 25 -69 44 -133 37 l-48 -6 7 37 c27 158
49 224 76 235 23 9 109 7 127 -3z m-649 -690 c0 -11 -6 -20 -14 -20 -18 0 -29
16 -21 30 11 18 35 11 35 -10z m1525 0 c0 -8 -8 -16 -17 -18 -13 -2 -18 3 -18
18 0 15 5 20 18 18 9 -2 17 -10 17 -18z m-585 -717 c12 -48 11 -48 -22 -76
-47 -39 -131 -77 -171 -77 -37 0 -144 49 -170 78 -16 18 -11 20 125 57 79 21
159 44 178 51 19 7 38 13 41 13 4 1 12 -20 19 -46z m-380 -128 c34 -24 76 -50
95 -57 19 -6 35 -17 35 -23 0 -5 -17 -32 -36 -59 -35 -48 -37 -48 -81 -43 -78
9 -138 70 -137 139 1 32 8 47 28 65 15 13 29 23 32 23 2 0 31 -20 64 -45z
m455 39 c21 -8 45 -56 45 -91 0 -62 -53 -112 -139 -132 -41 -9 -41 -9 -74 38
-18 25 -36 51 -40 57 -4 7 13 22 46 38 29 14 71 41 93 60 42 38 44 39 69 30z
m-627 -142 c23 -77 122 -142 218 -142 39 0 45 4 75 45 18 25 34 45 36 45 2 0
3 -77 3 -170 l0 -170 -387 2 -386 3 -14 69 c-8 38 -27 104 -43 147 l-28 78 51
15 c60 17 430 110 458 115 3 1 11 -16 17 -37z m1015 -32 c126 -32 230 -60 232
-62 2 -2 -11 -48 -30 -103 -18 -55 -36 -121 -40 -147 l-7 -48 -389 0 -389 0 0
172 0 172 33 -48 32 -48 62 5 c102 8 184 69 200 150 7 33 -19 37 296 -43z
m-1565 -155 c13 -38 30 -99 37 -137 l13 -68 -139 0 c-100 0 -139 3 -139 12 0
20 78 172 102 198 35 38 80 71 92 67 6 -2 21 -34 34 -72z m1954 -12 c21 -26
51 -79 67 -118 l30 -70 -131 -3 c-72 -1 -133 0 -136 3 -9 9 17 132 45 205 l25
70 32 -19 c17 -10 48 -41 68 -68z m254 -295 c28 -15 72 -50 97 -78 80 -89 77
-51 77 -862 l0 -718 -1475 0 -1476 0 3 724 3 723 35 69 c40 77 105 135 180
159 38 12 237 13 1275 12 l1230 -2 51 -27z m-3244 -802 c28 -54 27 -139 -2
-195 -19 -38 -24 -42 -53 -39 l-32 3 4 150 c2 83 5 154 8 158 8 13 53 -33 75
-77z m-266 -16 l42 -21 5 -67 c3 -37 8 -78 12 -92 5 -17 -25 8 -94 80 -55 58
-100 108 -101 113 0 15 95 6 136 -13z m514 -23 c0 -97 -82 -197 -163 -197 -35
0 -38 2 -31 23 3 12 13 36 21 52 18 37 143 165 160 165 9 0 13 -15 13 -43z
m-45 -322 c-1 -109 -37 -464 -49 -480 -16 -20 -438 -27 -458 -7 -13 13 -61
537 -51 555 2 4 129 6 281 5 l277 -3 0 -70z m4036 34 c7 -14 10 -75 7 -177 -3
-154 -4 -158 -34 -212 -28 -50 -101 -120 -126 -120 -5 0 10 19 34 42 77 76 83
97 83 305 0 137 3 183 12 183 7 0 17 -9 24 -21z m110 -115 c37 -19 63 -74 54
-115 -8 -35 -58 -79 -91 -79 -24 0 -24 1 -24 98 0 121 3 126 61 96z"/>
<path d="M2454 3489 c-30 -9 -82 -54 -72 -64 3 -3 28 -1 56 5 48 11 81 7 135
-15 33 -13 16 37 -18 56 -43 24 -66 28 -101 18z"/>
<path d="M2726 3485 c-3 -9 -6 -50 -6 -91 0 -64 -2 -74 -17 -74 -10 0 -33 -9
-51 -20 -29 -18 -33 -25 -30 -57 4 -47 41 -76 100 -77 36 -1 43 2 43 18 0 15
-11 22 -45 30 -51 12 -67 42 -28 50 13 3 36 7 51 11 l28 6 -3 107 c-3 89 -6
107 -19 110 -9 2 -19 -4 -23 -13z"/>
<path d="M1904 3467 c59 -36 80 -64 82 -108 2 -48 18 -63 28 -25 6 24 4 35
-16 89 -12 31 -54 57 -90 56 -22 0 -22 -1 -4 -12z"/>
<path d="M3464 3446 c-30 -30 -34 -40 -34 -85 0 -39 4 -51 15 -51 11 0 15 12
15 46 0 37 5 51 29 75 16 16 37 29 45 29 9 0 16 5 16 10 0 23 -53 9 -86 -24z"/>
<path d="M2546 3063 c-9 -24 3 -32 85 -58 41 -13 68 -24 62 -24 -7 -1 -13 -10
-13 -21 0 -23 51 -36 99 -25 37 8 47 21 31 40 -10 12 -6 15 17 20 56 12 115
38 120 52 12 30 -13 35 -75 14 -79 -27 -171 -27 -247 -1 -70 24 -71 24 -79 3z"/>
<path d="M2691 1092 c-47 -23 -72 -61 -78 -113 -11 -115 103 -192 206 -139
103 52 101 204 -2 253 -45 22 -83 21 -126 -1z"/>
<path d="M4679 1138 c-7 -13 -25 -35 -41 -50 -36 -34 -37 -76 -2 -109 47 -44
48 -55 9 -96 -35 -37 -43 -72 -18 -81 7 -2 16 5 20 15 3 10 21 32 40 49 44 42
44 76 -2 120 -19 18 -35 38 -35 45 0 7 16 28 36 47 22 22 34 42 32 55 -4 29
-25 32 -39 5z"/>
<path d="M4772 1110 c-53 -61 -56 -99 -12 -140 17 -15 30 -33 30 -40 0 -7 -13
-28 -30 -47 -32 -36 -40 -83 -15 -83 8 0 15 4 15 10 0 5 16 27 35 49 45 49 46
86 5 126 -16 16 -30 36 -30 45 0 9 14 29 30 45 28 27 40 68 22 79 -4 3 -27
-17 -50 -44z"/>
<path d="M4913 1143 c-3 -10 -21 -35 -40 -56 -18 -20 -33 -46 -33 -57 0 -11
16 -37 35 -59 19 -21 35 -42 35 -46 0 -4 -16 -25 -36 -47 -19 -22 -34 -47 -32
-56 4 -19 38 -30 38 -11 0 6 16 29 35 50 20 23 35 50 35 64 0 14 -15 41 -35
64 -19 21 -35 41 -35 43 0 3 16 21 36 42 23 23 34 44 32 58 -4 28 -26 35 -35
11z"/>
</g>
</svg>
